Coordinates
version=1
nRows=31
nColumns=38
inDegrees=no

Units are S.I. units (second, meters, Newtons, ...)
If the header above contains a line with 'inDegrees', this indicates whether rotational values are in degrees (yes) or radians (no).

endheader
time	pelvis_tilt	pelvis_list	pelvis_rotation	pelvis_tx	pelvis_ty	pelvis_tz	hip_flexion_r	hip_adduction_r	hip_rotation_r	knee_angle_r	ankle_angle_r	subtalar_angle_r	mtp_angle_r	hip_flexion_l	hip_adduction_l	hip_rotation_l	knee_angle_l	ankle_angle_l	subtalar_angle_l	mtp_angle_l	lumbar_extension	lumbar_bending	lumbar_rotation	arm_flex_r	arm_add_r	arm_rot_r	elbow_flex_r	pro_sup_r	wrist_flex_r	wrist_dev_r	arm_flex_l	arm_add_l	arm_rot_l	elbow_flex_l	pro_sup_l	wrist_flex_l	wrist_dev_l
0	-0.954561	1.47213	-0.436815	0.758233	0.757328	1.00246	0.445579	0.0295474	-0.0911249	0.421767	-0.198974	0	0	-0.218426	-0.225599	-0.168319	0.693583	-0.134037	0	0	-0.274712	0.18453	0.0207532	-0.289048	-0.341668	0.300752	0.586916	0.842298	0	0	0.622175	-0.539856	1.14624	0.611284	1.32632	0	0
0.01	-1.0501	1.47524	-0.346334	0.75695	0.743924	1.00195	0.466649	0.0332649	-0.0866315	0.47013	-0.189845	0	0	-0.205481	-0.227984	-0.165169	0.721883	-0.150843	0	0	-0.263694	0.190239	0.0235909	-0.292794	-0.345506	0.299278	0.591124	0.837452	0	0	0.602906	-0.539047	1.14248	0.616346	1.32206	0	0
0.02	-1.08545	1.47527	-0.314071	0.755642	0.730291	1.00227	0.475298	0.0343394	-0.092735	0.508002	-0.176818	0	0	-0.197906	-0.228822	-0.154607	0.74965	-0.169865	0	0	-0.259626	0.196288	0.0262924	-0.295974	-0.347925	0.29698	0.594035	0.836542	0	0	0.584924	-0.53766	1.13989	0.620963	1.31896	0	0
0.03	-1.09909	1.47389	-0.303401	0.754164	0.716591	1.00294	0.478199	0.0364811	-0.103132	0.540218	-0.163955	0	0	-0.189089	-0.230547	-0.144488	0.781771	-0.193539	0	0	-0.258286	0.202521	0.0299931	-0.298861	-0.34966	0.294704	0.596071	0.837479	0	0	0.567629	-0.536984	1.13946	0.62677	1.31548	0	0
0.04	-1.09886	1.47123	-0.306183	0.752694	0.702984	1.00387	0.475838	0.0395213	-0.118355	0.564662	-0.155388	0	0	-0.178896	-0.23284	-0.132792	0.816466	-0.219389	0	0	-0.258799	0.209308	0.0343812	-0.301691	-0.351242	0.292062	0.597865	0.837917	0	0	0.551015	-0.536547	1.14049	0.63339	1.31226	0	0
0.05	-1.09736	1.46801	-0.31009	0.751268	0.689524	1.00486	0.470446	0.0433761	-0.135913	0.581283	-0.14919	0	0	-0.166176	-0.235238	-0.119704	0.854259	-0.246597	0	0	-0.25968	0.216432	0.039127	-0.304804	-0.353063	0.289302	0.600126	0.83861	0	0	0.534689	-0.536617	1.14307	0.640882	1.30848	0	0
0.06	-1.10359	1.4652	-0.306495	0.749817	0.676272	1.00575	0.463766	0.0484205	-0.15153	0.590718	-0.144959	0	0	-0.149794	-0.236688	-0.105169	0.895992	-0.269352	0	0	-0.259637	0.223056	0.0442182	-0.308165	-0.354861	0.28617	0.602517	0.840173	0	0	0.518287	-0.537274	1.14568	0.649853	1.30061	0	0
0.07	-1.11099	1.46295	-0.302121	0.748332	0.663202	1.00654	0.455721	0.0546441	-0.162969	0.596256	-0.139588	0	0	-0.130893	-0.236814	-0.08996	0.940918	-0.2858	0	0	-0.259184	0.22851	0.0496979	-0.311515	-0.356443	0.282848	0.604775	0.843023	0	0	0.50211	-0.538603	1.14983	0.659376	1.29392	0	0
0.08	-1.11291	1.46128	-0.303884	0.746833	0.650313	1.00737	0.445753	0.0614563	-0.168857	0.600164	-0.133094	0	0	-0.110865	-0.235403	-0.0749813	0.987267	-0.298682	0	0	-0.259231	0.232498	0.0556499	-0.314422	-0.357915	0.279638	0.6068	0.845497	0	0	0.485751	-0.540087	1.15335	0.668335	1.29168	0	0
0.09	-1.11448	1.46074	-0.306927	0.745325	0.637615	1.00828	0.434898	0.0682337	-0.167972	0.603476	-0.123299	0	0	-0.0892175	-0.232325	-0.0612431	1.03359	-0.311045	0	0	-0.259169	0.234727	0.0613387	-0.316236	-0.359079	0.276263	0.608041	0.847786	0	0	0.468372	-0.542221	1.1545	0.677586	1.28781	0	0
0.1	-1.11197	1.46132	-0.314941	0.743807	0.625117	1.00935	0.422959	0.0747575	-0.161076	0.605671	-0.110936	0	0	-0.0668542	-0.227711	-0.0491202	1.0783	-0.31831	0	0	-0.259445	0.235068	0.0670409	-0.316942	-0.359969	0.273369	0.60847	0.850303	0	0	0.450217	-0.545087	1.15391	0.687268	1.28225	0	0
0.11	-1.09445	1.46266	-0.338697	0.742292	0.612805	1.01066	0.408724	0.0808689	-0.150449	0.606604	-0.0975099	0	0	-0.0458051	-0.221266	-0.0383405	1.12019	-0.314464	0	0	-0.261483	0.233287	0.0732378	-0.316638	-0.360636	0.271096	0.608478	0.852636	0	0	0.432398	-0.547556	1.15272	0.695989	1.27783	0	0
0.12	-1.06077	1.46447	-0.378887	0.740854	0.600651	1.01222	0.392359	0.0862153	-0.13855	0.606405	-0.0817176	0	0	-0.0263448	-0.214456	-0.0320464	1.15917	-0.29689	0	0	-0.265196	0.229943	0.0795078	-0.315571	-0.361297	0.269526	0.60824	0.854989	0	0	0.415077	-0.549127	1.15102	0.703076	1.2721	0	0
0.13	-1.01754	1.46623	-0.428508	0.739489	0.588669	1.01393	0.374561	0.0911505	-0.126504	0.604319	-0.0672366	0	0	-0.00741298	-0.207896	-0.0301176	1.19563	-0.270318	0	0	-0.269795	0.225983	0.0860452	-0.314035	-0.362057	0.268994	0.607546	0.856684	0	0	0.398852	-0.549503	1.15044	0.707968	1.26611	0	0
0.14	-0.978137	1.46685	-0.474363	0.738086	0.576761	1.01558	0.35625	0.0974245	-0.114424	0.600234	-0.0572305	0	0	0.012162	-0.204305	-0.0339703	1.22999	-0.244472	0	0	-0.274334	0.222946	0.0936862	-0.313497	-0.363145	0.268598	0.607986	0.856808	0	0	0.383355	-0.549303	1.15065	0.711855	1.2623	0	0
0.15	-0.934516	1.46714	-0.523403	0.736842	0.564993	1.01733	0.336638	0.102898	-0.103712	0.59403	-0.0491786	0	0	0.0323475	-0.201281	-0.0404117	1.26127	-0.223021	0	0	-0.279106	0.219996	0.100472	-0.312576	-0.36424	0.269243	0.608066	0.856666	0	0	0.36832	-0.548137	1.15103	0.71355	1.26006	0	0
0.16	-0.887848	1.46666	-0.574537	0.735732	0.553374	1.01918	0.314983	0.108052	-0.0938517	0.584723	-0.0414117	0	0	0.0528063	-0.198782	-0.047481	1.28924	-0.20485	0	0	-0.284345	0.217559	0.106588	-0.31141	-0.365536	0.270777	0.608155	0.856358	0	0	0.354344	-0.546166	1.15304	0.713365	1.25848	0	0
0.17	-0.839977	1.46537	-0.62624	0.734717	0.541919	1.0211	0.290994	0.112895	-0.0846218	0.572075	-0.0343649	0	0	0.0731068	-0.196977	-0.0544877	1.31328	-0.190147	0	0	-0.290091	0.215691	0.112455	-0.31029	-0.367086	0.272659	0.608607	0.855591	0	0	0.341681	-0.543251	1.157	0.711163	1.25729	0	0
0.18	-0.792521	1.46318	-0.677017	0.733787	0.530611	1.02306	0.264063	0.117499	-0.0756632	0.555946	-0.0273949	0	0	0.0929361	-0.195982	-0.0610051	1.33296	-0.177585	0	0	-0.296266	0.214291	0.118396	-0.309774	-0.368832	0.274336	0.609983	0.854513	0	0	0.330131	-0.539267	1.16189	0.706988	1.25578	0	0
0.19	-0.752453	1.46078	-0.720544	0.732931	0.519446	1.02497	0.236443	0.121639	-0.0677522	0.53688	-0.0219605	0	0	0.112845	-0.19558	-0.067134	1.3479	-0.166399	0	0	-0.301917	0.213283	0.124697	-0.310041	-0.370873	0.275132	0.612509	0.852931	0	0	0.319529	-0.53448	1.16863	0.701287	1.25451	0	0
0.2	-0.720916	1.45882	-0.756047	0.732166	0.508479	1.02677	0.209527	0.124765	-0.0622451	0.515701	-0.0189066	0	0	0.133194	-0.195059	-0.0728456	1.35805	-0.155906	0	0	-0.306649	0.21229	0.131783	-0.311148	-0.373255	0.274925	0.616151	0.850827	0	0	0.309734	-0.528673	1.17629	0.694111	1.25313	0	0
0.21	-0.686241	1.45576	-0.794928	0.73144	0.497694	1.02861	0.180537	0.127698	-0.0575974	0.491327	-0.018605	0	0	0.151479	-0.195126	-0.0789699	1.36297	-0.14546	0	0	-0.312689	0.211559	0.140035	-0.313679	-0.376112	0.273028	0.622021	0.847996	0	0	0.302142	-0.522512	1.18783	0.686308	1.25012	0	0
0.22	-0.646404	1.45128	-0.839398	0.730647	0.486959	1.03053	0.148707	0.130824	-0.0519643	0.464101	-0.021308	0	0	0.166792	-0.19604	-0.0869125	1.36233	-0.13601	0	0	-0.320573	0.210744	0.149259	-0.317336	-0.378917	0.269061	0.629645	0.844889	0	0	0.296355	-0.516707	1.20311	0.678578	1.24413	0	0
0.23	-0.615791	1.44742	-0.875762	0.729678	0.476087	1.03235	0.116485	0.134455	-0.0434089	0.433173	-0.026591	0	0	0.181694	-0.197914	-0.0977368	1.35682	-0.127113	0	0	-0.326888	0.209362	0.158552	-0.320163	-0.380917	0.26553	0.635143	0.842993	0	0	0.289465	-0.511051	1.21762	0.670006	1.23639	0	0
0.24	-0.585059	1.44295	-0.911746	0.728755	0.465272	1.03416	0.0821467	0.138028	-0.034778	0.397667	-0.0367104	0	0	0.195156	-0.200139	-0.109786	1.34722	-0.117833	0	0	-0.333707	0.207848	0.167821	-0.323122	-0.382523	0.261502	0.64036	0.842025	0	0	0.283585	-0.505441	1.23361	0.661338	1.22581	0	0
0.25	-0.558917	1.43921	-0.94264	0.72793	0.454558	1.03579	0.0500712	0.140885	-0.0265655	0.365535	-0.045065	0	0	0.208982	-0.201737	-0.122422	1.33426	-0.108859	0	0	-0.339677	0.20599	0.175434	-0.325042	-0.384165	0.258369	0.644872	0.84207	0	0	0.276059	-0.500439	1.24552	0.653294	1.21809	0	0
0.26	-0.52649	1.43335	-0.979585	0.727148	0.443922	1.03747	0.0128998	0.144098	-0.0150977	0.326322	-0.060802	0	0	0.218951	-0.203888	-0.13738	1.31738	-0.0997342	0	0	-0.348437	0.204286	0.183418	-0.327851	-0.386016	0.25351	0.651089	0.843348	0	0	0.270607	-0.496156	1.2613	0.646478	1.20467	0	0
0.27	-0.492448	1.42692	-1.01829	0.726354	0.433245	1.03907	-0.0263456	0.146665	-0.00188222	0.284549	-0.0774475	0	0	0.226471	-0.205312	-0.153454	1.2968	-0.090704	0	0	-0.357894	0.201924	0.190437	-0.330051	-0.387775	0.248981	0.657034	0.84606	0	0	0.264188	-0.492867	1.27472	0.640763	1.19036	0	0
0.28	-0.459593	1.42023	-1.05543	0.725596	0.422593	1.04049	-0.0656395	0.148296	0.0110512	0.243621	-0.0941738	0	0	0.232357	-0.206584	-0.170829	1.27314	-0.082126	0	0	-0.367637	0.199158	0.196459	-0.332018	-0.389427	0.24435	0.663113	0.849715	0	0	0.257351	-0.490252	1.28627	0.635877	1.1767	0	0
0.29	-0.430853	1.41421	-1.08803	0.724883	0.411987	1.04167	-0.102787	0.148927	0.022939	0.205892	-0.107598	0	0	0.237996	-0.207454	-0.18937	1.24665	-0.075301	0	0	-0.376421	0.196074	0.200719	-0.333005	-0.390992	0.240608	0.668364	0.854016	0	0	0.249015	-0.488258	1.29391	0.631597	1.16497	0	0
0.3	-0.399763	1.40668	-1.12249	0.724226	0.401435	1.04276	-0.143337	0.148978	0.0358935	0.16345	-0.126935	0	0	0.239927	-0.208601	-0.210235	1.21681	-0.0681033	0	0	-0.387108	0.192768	0.204437	-0.33455	-0.392484	0.235418	0.675006	0.859795	0	0	0.241441	-0.487453	1.3018	0.629412	1.15088	0	0
